<?xml version="1.0" encoding="UTF-8" standalone="no"?>
<!DOCTYPE svg PUBLIC "-//W3C//DTD SVG 1.1//EN" "http://www.w3.org/Graphics/SVG/1.1/DTD/svg11.dtd">
<!-- Generated by graphviz version 9.0.0 (20230911.1827)
 -->
<!-- Pages: 1 -->
<svg xmlns="http://www.w3.org/2000/svg" xmlns:xlink="http://www.w3.org/1999/xlink" width="758pt" height="332pt" viewBox="0.00 0.00 758.12 332.00"><style>
.node ellipse { stroke: black; fill: white }
.node text    { fill: black }
.edge path    { stroke: black }
.edge polygon { stroke: black; fill: black }

@media (prefers-color-scheme: dark) {
.node ellipse { stroke: white; fill: black }
.node text    { fill: white }
.edge path    { stroke: white }
.edge polygon { stroke: white; fill: white }
}

svg { color-scheme: light dark }
text {
    text-anchor: middle;
    font-family: sans-serif;
}
.faded-fill { fill: gray !important }
.faded-stroke { stroke: gray !important }
</style>
<g id="graph0" class="graph" transform="scale(1 1) rotate(0) translate(4 328)">
<!-- Unitful -->
<g id="node1" class="node">
<title>Unitful</title>
<polygon fill="none" stroke="none" points="417,-324 345,-324 345,-288 417,-288 417,-324"/>
<text x="381" y="-301.32" font-size="14.00">Unitful</text>
</g>
<!-- Dates -->
<g id="node2" class="node">
<title>Dates</title>
<polygon fill="none" stroke="none" points="294,-252 222,-252 222,-216 294,-216 294,-252"/>
<text x="258" y="-229.32" font-size="14.00" fill="gray" class="faded-fill">Dates</text>
</g>
<!-- Unitful&#45;&gt;Dates -->
<g id="edge1" class="edge">
<title>Unitful-&gt;Dates</title>
<path fill="none" d="M350.28,-287.52C334.01,-278.26 313.88,-266.8 296.57,-256.95" class="faded-stroke"/>
<polygon points="297.98,-254.53 289.64,-253.01 295.21,-259.4 297.98,-254.53" class="faded-stroke faded-fill"/>
</g>
<!-- LinearAlgebra -->
<g id="node5" class="node">
<title>LinearAlgebra</title>
<polygon fill="none" stroke="none" points="432.12,-252 329.88,-252 329.88,-216 432.12,-216 432.12,-252"/>
<text x="381" y="-229.32" font-size="14.00" fill="gray" class="faded-fill">LinearAlgebra</text>
</g>
<!-- Unitful&#45;&gt;LinearAlgebra -->
<g id="edge4" class="edge">
<title>Unitful-&gt;LinearAlgebra</title>
<path fill="none" d="M381,-287.7C381,-279.81 381,-270.3 381,-261.55" class="faded-stroke"/>
<polygon points="383.8,-261.62 381,-253.62 378.2,-261.62 383.8,-261.62" class="faded-stroke faded-fill"/>
</g>
<!-- Random -->
<g id="node11" class="node">
<title>Random</title>
<polygon fill="none" stroke="none" points="642,-252 570,-252 570,-216 642,-216 642,-252"/>
<text x="606" y="-229.32" font-size="14.00" fill="gray" class="faded-fill">Random</text>
</g>
<!-- Unitful&#45;&gt;Random -->
<g id="edge15" class="edge">
<title>Unitful-&gt;Random</title>
<path fill="none" d="M417.4,-293.68C456.45,-281.53 518.53,-262.21 560.71,-249.09" class="faded-stroke"/>
<polygon points="561.4,-251.81 568.21,-246.76 559.74,-246.46 561.4,-251.81" class="faded-stroke faded-fill"/>
</g>
<!-- Printf -->
<g id="node3" class="node">
<title>Printf</title>
<polygon fill="none" stroke="none" points="123,-180 51,-180 51,-144 123,-144 123,-180"/>
<text x="87" y="-157.32" font-size="14.00" fill="gray" class="faded-fill">Printf</text>
</g>
<!-- Dates&#45;&gt;Printf -->
<g id="edge2" class="edge">
<title>Dates-&gt;Printf</title>
<path fill="none" d="M221.74,-218.15C195.44,-207.39 159.71,-192.76 131.65,-181.28" class="faded-stroke"/>
<polygon points="133.08,-178.84 124.61,-178.4 130.96,-184.02 133.08,-178.84" class="faded-stroke faded-fill"/>
</g>
<!-- Unicode -->
<g id="node4" class="node">
<title>Unicode</title>
<polygon fill="none" stroke="none" points="72,-108 0,-108 0,-72 72,-72 72,-108"/>
<text x="36" y="-85.33" font-size="14.00" fill="gray" class="faded-fill">Unicode</text>
</g>
<!-- Printf&#45;&gt;Unicode -->
<g id="edge3" class="edge">
<title>Printf-&gt;Unicode</title>
<path fill="none" d="M74.39,-143.7C68.22,-135.22 60.67,-124.86 53.91,-115.58" class="faded-stroke"/>
<polygon points="56.33,-114.14 49.35,-109.33 51.8,-117.44 56.33,-114.14" class="faded-stroke faded-fill"/>
</g>
<!-- Libdl -->
<g id="node6" class="node">
<title>Libdl</title>
<polygon fill="none" stroke="none" points="478,-36 406,-36 406,0 478,0 478,-36"/>
<text x="442" y="-13.32" font-size="14.00" fill="gray" class="faded-fill">Libdl</text>
</g>
<!-- LinearAlgebra&#45;&gt;Libdl -->
<g id="edge5" class="edge">
<title>LinearAlgebra-&gt;Libdl</title>
<path fill="none" d="M407.74,-215.68C437.62,-194.49 484.15,-155.5 502,-108 507.63,-93.02 508.58,-86.59 502,-72 496.81,-60.49 487.75,-50.47 478.22,-42.34" class="faded-stroke"/>
<polygon points="480.07,-40.24 472.07,-37.44 476.58,-44.62 480.07,-40.24" class="faded-stroke faded-fill"/>
</g>
<!-- OpenBLAS_jll -->
<g id="node7" class="node">
<title>OpenBLAS_jll</title>
<polygon fill="none" stroke="none" points="430.25,-180 331.75,-180 331.75,-144 430.25,-144 430.25,-180"/>
<text x="381" y="-157.32" font-size="14.00" fill="gray" class="faded-fill">OpenBLAS_jll</text>
</g>
<!-- LinearAlgebra&#45;&gt;OpenBLAS_jll -->
<g id="edge6" class="edge">
<title>LinearAlgebra-&gt;OpenBLAS_jll</title>
<path fill="none" d="M381,-215.7C381,-207.81 381,-198.3 381,-189.55" class="faded-stroke"/>
<polygon points="383.8,-189.62 381,-181.62 378.2,-189.62 383.8,-189.62" class="faded-stroke faded-fill"/>
</g>
<!-- libblastrampoline_jll -->
<g id="node10" class="node">
<title>libblastrampoline_jll</title>
<polygon fill="none" stroke="none" points="229.5,-108 90.5,-108 90.5,-72 229.5,-72 229.5,-108"/>
<text x="160" y="-85.33" font-size="14.00" fill="gray" class="faded-fill">libblastrampoline_jll</text>
</g>
<!-- LinearAlgebra&#45;&gt;libblastrampoline_jll -->
<g id="edge12" class="edge">
<title>LinearAlgebra-&gt;libblastrampoline_jll</title>
<path fill="none" d="M353.9,-215.59C313.86,-189.86 238.9,-141.69 194.83,-113.38" class="faded-stroke"/>
<polygon points="196.49,-111.12 188.25,-109.15 193.46,-115.83 196.49,-111.12" class="faded-stroke faded-fill"/>
</g>
<!-- OpenBLAS_jll&#45;&gt;Libdl -->
<g id="edge11" class="edge">
<title>OpenBLAS_jll-&gt;Libdl</title>
<path fill="none" d="M430.63,-148.25C451.18,-140.25 472.98,-127.61 485,-108 497.9,-86.94 482.71,-61.44 466.94,-43.14" class="faded-stroke"/>
<polygon points="469.16,-41.42 461.71,-37.38 465.01,-45.18 469.16,-41.42" class="faded-stroke faded-fill"/>
</g>
<!-- Artifacts -->
<g id="node8" class="node">
<title>Artifacts</title>
<polygon fill="none" stroke="none" points="294,-36 222,-36 222,0 294,0 294,-36"/>
<text x="258" y="-13.32" font-size="14.00" fill="gray" class="faded-fill">Artifacts</text>
</g>
<!-- OpenBLAS_jll&#45;&gt;Artifacts -->
<g id="edge7" class="edge">
<title>OpenBLAS_jll-&gt;Artifacts</title>
<path fill="none" d="M331.35,-146.2C311.69,-137.95 290.58,-125.68 277,-108 263.31,-90.18 258.97,-64.69 257.81,-45.56" class="faded-stroke"/>
<polygon points="260.62,-45.61 257.52,-37.72 255.02,-45.81 260.62,-45.61" class="faded-stroke faded-fill"/>
</g>
<!-- CompilerSupportLibraries_jll -->
<g id="node9" class="node">
<title>CompilerSupportLibraries_jll</title>
<polygon fill="none" stroke="none" points="476.38,-108 285.62,-108 285.62,-72 476.38,-72 476.38,-108"/>
<text x="381" y="-85.33" font-size="14.00" fill="gray" class="faded-fill">CompilerSupportLibraries_jll</text>
</g>
<!-- OpenBLAS_jll&#45;&gt;CompilerSupportLibraries_jll -->
<g id="edge8" class="edge">
<title>OpenBLAS_jll-&gt;CompilerSupportLibraries_jll</title>
<path fill="none" d="M381,-143.7C381,-135.81 381,-126.3 381,-117.55" class="faded-stroke"/>
<polygon points="383.8,-117.62 381,-109.62 378.2,-117.62 383.8,-117.62" class="faded-stroke faded-fill"/>
</g>
<!-- CompilerSupportLibraries_jll&#45;&gt;Libdl -->
<g id="edge10" class="edge">
<title>CompilerSupportLibraries_jll-&gt;Libdl</title>
<path fill="none" d="M396.08,-71.7C403.61,-63.05 412.85,-52.45 421.06,-43.03" class="faded-stroke"/>
<polygon points="422.96,-45.12 426.1,-37.25 418.73,-41.44 422.96,-45.12" class="faded-stroke faded-fill"/>
</g>
<!-- CompilerSupportLibraries_jll&#45;&gt;Artifacts -->
<g id="edge9" class="edge">
<title>CompilerSupportLibraries_jll-&gt;Artifacts</title>
<path fill="none" d="M350.28,-71.52C334.01,-62.26 313.88,-50.8 296.57,-40.95" class="faded-stroke"/>
<polygon points="297.98,-38.53 289.64,-37.01 295.21,-43.4 297.98,-38.53" class="faded-stroke faded-fill"/>
</g>
<!-- libblastrampoline_jll&#45;&gt;Libdl -->
<g id="edge14" class="edge">
<title>libblastrampoline_jll-&gt;Libdl</title>
<path fill="none" d="M229.71,-71.7C281.78,-58.77 351.47,-41.47 396.55,-30.28" class="faded-stroke"/>
<polygon points="397.22,-33 404.31,-28.36 395.87,-27.57 397.22,-33" class="faded-stroke faded-fill"/>
</g>
<!-- libblastrampoline_jll&#45;&gt;Artifacts -->
<g id="edge13" class="edge">
<title>libblastrampoline_jll-&gt;Artifacts</title>
<path fill="none" d="M184.48,-71.52C197.08,-62.51 212.61,-51.42 226.14,-41.76" class="faded-stroke"/>
<polygon points="227.72,-44.07 232.6,-37.14 224.47,-39.51 227.72,-44.07" class="faded-stroke faded-fill"/>
</g>
<!-- SHA -->
<g id="node12" class="node">
<title>SHA</title>
<polygon fill="none" stroke="none" points="642,-180 570,-180 570,-144 642,-144 642,-180"/>
<text x="606" y="-157.32" font-size="14.00" fill="gray" class="faded-fill">SHA</text>
</g>
<!-- Random&#45;&gt;SHA -->
<g id="edge16" class="edge">
<title>Random-&gt;SHA</title>
<path fill="none" d="M606,-215.7C606,-207.81 606,-198.3 606,-189.55" class="faded-stroke"/>
<polygon points="608.8,-189.62 606,-181.62 603.2,-189.62 608.8,-189.62" class="faded-stroke faded-fill"/>
</g>
<!-- Serialization -->
<g id="node13" class="node">
<title>Serialization</title>
<polygon fill="none" stroke="none" points="750.12,-180 659.88,-180 659.88,-144 750.12,-144 750.12,-180"/>
<text x="705" y="-157.32" font-size="14.00" fill="gray" class="faded-fill">Serialization</text>
</g>
<!-- Random&#45;&gt;Serialization -->
<g id="edge17" class="edge">
<title>Random-&gt;Serialization</title>
<path fill="none" d="M630.73,-215.52C643.58,-206.43 659.44,-195.22 673.19,-185.49" class="faded-stroke"/>
<polygon points="674.44,-188.04 679.35,-181.13 671.2,-183.47 674.44,-188.04" class="faded-stroke faded-fill"/>
</g>
</g>
</svg>
